<svg xmlns="http://www.w3.org/2000/svg" viewBox="0 0 70 70"><title>Asset 11</title><g id="Layer_2" data-name="Layer 2"><g id="레이어_1" data-name="레이어 1"><path d="M68,2V68H2V2H68m2-2H0V70H70V0Z"/><path d="M47.78,28.79l-1.28-.4c.07-.29.13-.58.2-.87,1-4.7.33-8.47-1.82-9.72s-5.45.05-8.87,3c-.34.29-.67.6-1,.9-.21-.2-.43-.41-.65-.6-3.58-3.19-7.18-4.52-9.33-3.27s-2.67,4.75-1.81,9.19c.09.44.18.87.29,1.32-.5.14-1,.3-1.46.46-4.21,1.46-7.22,3.76-7.22,6.14s3.21,4.92,7.58,6.42c.36.11.71.23,1.07.33-.12.48-.22.94-.31,1.42-.83,4.37-.18,7.84,1.88,9s5.7,0,9.18-3.08c.28-.24.56-.5.83-.76.35.33.71.66,1.07,1,3.37,2.9,6.71,4.07,8.76,2.89s2.82-5,1.92-9.5c-.07-.34-.15-.7-.23-1.06l.74-.23c4.54-1.5,7.83-3.94,7.83-6.43s-3.1-4.71-7.38-6.18ZM37.12,22.1c2.93-2.55,5.66-3.55,6.91-2.83s1.84,3.85,1,7.91c-.06.26-.12.52-.19.78a41.14,41.14,0,0,0-5.3-.83A38.56,38.56,0,0,0,36.2,23C36.5,22.66,36.8,22.38,37.12,22.1ZM28,39.05c.4.69.81,1.38,1.24,2a34.26,34.26,0,0,1-3.65-.59A34.14,34.14,0,0,1,26.88,37c.36.69.73,1.38,1.13,2Zm-2.39-9.47c1.13-.25,2.34-.46,3.59-.62-.42.66-.83,1.33-1.21,2s-.77,1.35-1.12,2c-.5-1.17-.91-2.32-1.26-3.43ZM27.78,35c.52-1.09,1.08-2.15,1.68-3.2s1.25-2.07,1.92-3.07c1.19-.08,2.39-.13,3.62-.13s2.44.05,3.62.13c.66,1,1.3,2,1.91,3.05S41.7,33.9,42.24,35c-.53,1.09-1.1,2.16-1.7,3.22s-1.24,2.06-1.91,3.07c-1.17.09-2.39.13-3.63.13s-2.43,0-3.59-.11c-.69-1-1.33-2-1.94-3.08S28.3,36.09,27.78,35ZM42,39c.4-.69.78-1.4,1.15-2.1a33.41,33.41,0,0,1,1.33,3.49c-1.22.27-2.45.48-3.7.63.43-.67.83-1.34,1.22-2Zm1.14-6c-.37-.69-.75-1.38-1.15-2.06s-.78-1.33-1.2-2a36.52,36.52,0,0,1,3.61.63A34.12,34.12,0,0,1,43.14,33ZM35,24.15c.82.9,1.6,1.84,2.33,2.82-1.56-.07-3.13-.07-4.69,0C33.43,26,34.23,25,35,24.15Zm-9.14-4.83c1.32-.77,4.26.33,7.36,3.08l.59.55a38.74,38.74,0,0,0-3.37,4.18,41.12,41.12,0,0,0-5.3.82c-.1-.4-.19-.81-.27-1.22-.74-3.82-.26-6.69,1-7.41ZM24,40.09l-1-.31a16,16,0,0,1-5-2.46A3.51,3.51,0,0,1,16.53,35c0-1.44,2.49-3.29,6.08-4.54.45-.16.91-.3,1.36-.43a42.8,42.8,0,0,0,1.93,5A42.61,42.61,0,0,0,24,40.09Zm9.18,7.72a14.45,14.45,0,0,1-4.44,2.78,3.53,3.53,0,0,1-2.78.1c-1.25-.73-1.77-3.51-1.06-7.25.08-.44.18-.88.29-1.31a41.52,41.52,0,0,0,5.35.77,41.59,41.59,0,0,0,3.4,4.2c-.25.25-.5.49-.76.71Zm1.93-1.92A37.18,37.18,0,0,1,32.68,43c.75,0,1.53,0,2.32,0s1.61,0,2.39-.06A32.08,32.08,0,0,1,35.06,45.89Zm10.3,2.36a3.52,3.52,0,0,1-1.3,2.47c-1.25.72-3.92-.22-6.81-2.69-.33-.29-.66-.59-1-.91a38.59,38.59,0,0,0,3.33-4.22A39.16,39.16,0,0,0,45,42.07c.08.32.15.65.21,1a14.31,14.31,0,0,1,.2,5.22Zm1.43-8.46-.67.2a39.51,39.51,0,0,0-2-5A38.28,38.28,0,0,0,46,30l1.18.37c3.68,1.26,6.25,3.14,6.25,4.57S50.72,38.49,46.79,39.79ZM35,38.61A3.61,3.61,0,1,0,31.39,35,3.61,3.61,0,0,0,35,38.61Z"/></g></g></svg>