<svg xmlns="http://www.w3.org/2000/svg" viewBox="0 0 70 70"><title>Asset 4</title><g id="Layer_2" data-name="Layer 2"><g id="레이어_1" data-name="레이어 1"><polygon points="28.1 17.9 28.1 16.1 30.8 16.1 30.8 14.2 26.2 14.2 26.2 19.7 30.8 19.7 30.8 17.9 28.1 17.9"/><path d="M35.5,16.1h1.8v-2H32.7v2l1.8,1.8H32.7v1.8h4.6V17.9Z"/><path d="M42,16.1h1.8v-2H39.2v2L41,17.9H39.2v1.8h4.6V17.9Z"/><path d="M35,56.9,22,53.2,19.1,21.3H50.9L48,53.3ZM23.8,51.8,35,54.9l11.2-3.2,2.6-28.6H21.2Z"/><polygon points="44 32.2 44.3 28.5 35.1 28.5 25.7 28.5 26.1 32.2 35.1 32.2 35.6 32.2 35.1 32.4 26.4 36 26.7 39.5 35.1 39.6 35.1 39.6 39.6 39.6 39.3 44.3 35.1 45.5 35.1 45.5 35 45.5 31 44.5 30.7 41.5 30.7 41.5 27 41.5 27 41.5 27.5 47.2 35.1 49.5 35.1 49.5 35.1 49.5 42.7 47.3 43.7 36 35.1 36 35.1 36 35.1 36 44 32.2"/><path d="M68,2V68H2V2H68m2-2H0V70H70V0Z"/></g></g></svg>