<svg xmlns="http://www.w3.org/2000/svg" viewBox="0 0 70 70"><title>Asset 4</title><g id="Layer_2" data-name="Layer 2"><g id="레이어_1" data-name="레이어 1"><path d="M24.5,21.9c-2.3,3.3-2,7.6-.3,11.1a.35.35,0,0,0,.1.2c0,.1.1.1.1.2a.1.1,0,0,0,.1.1c0,.1.1.1.1.2s.1.2.2.3.1.1.1.2.1.2.2.3l.1.1c.1.1.2.3.3.4h0v.1l.3.3.1.1c.1.1.2.3.3.4s.2.3.3.4h0l.7.7.1.1a1.38,1.38,0,0,0,.4.3l.1.1.3.3.1.1c.1.1.2.1.3.2l.1.1c.1.1.2.2.3.2l.1.1h0c.1.1.2.1.3.2l.1.1c.2.1.3.2.5.3a.1.1,0,0,1,.1.1c.1.1.2.1.4.2s.1.1.2.1.2.1.3.1H31a.1.1,0,0,1,.1.1c.2.1.3.2.5.2s.3.1.5.2h.1c.2.1.3.1.5.2s.3.1.5.2h.1a.9.9,0,0,0,.5.1c11.1,2,14.3-6.7,14.3-6.7-2.7,3.5-7.5,4.5-12.1,3.4-.2,0-.3-.1-.5-.1s-.4-.1-.6-.2h-.1c-.1-.1-.3-.1-.4-.2h-.1c-.2-.1-.3-.1-.5-.2h-.1c-.2-.1-.3-.2-.5-.2s-.2-.1-.3-.2-.1-.1-.2-.1-.2-.1-.4-.2a.1.1,0,0,1-.1-.1c-.2-.1-.3-.2-.5-.3l-.1-.1c-.1-.1-.2-.1-.3-.2l-.1-.1c-.1,0-.2-.1-.3-.1l-.1-.1c-.1-.1-.3-.2-.4-.3a1.38,1.38,0,0,0-.4-.3h0c-.1-.1-.3-.2-.4-.3l-.1-.1-.3-.3-.1-.1a1.38,1.38,0,0,1-.3-.4h0c-.1-.1-.2-.3-.3-.4l-.1-.1c-.1-.1-.2-.2-.2-.3l-.1-.1a1.38,1.38,0,0,1-.3-.4c-2.5-3.4-3.4-8.2-1.4-12.1"/><path d="M31.6,19.1a7.86,7.86,0,0,0-.3,8.1c.2.4.5.8.7,1.2a3.13,3.13,0,0,0,.9,1.1c.1.1.2.3.4.4l.1.1.4.4h0c.1.1.3.2.4.4l.1.1c.2.1.3.2.5.3h0c.1,0,.1.1.2.1a.1.1,0,0,1,.1.1c.1.1.2.1.3.2h0c.1.1.2.1.3.2a.1.1,0,0,1,.1.1c.1,0,.1.1.2.1h0c.1.1.3.1.4.2h.1c.1.1.2.1.4.1s.1,0,.2.1.2.1.3.1h.2c.2,0,.3.1.5.1,8.6,1.4,10.5-5.2,10.5-5.2-1.8,2.6-5.2,3.8-8.9,2.8-.2-.1-.4-.1-.6-.2s-.3-.1-.5-.2-.2-.1-.4-.1h-.1c-.2-.1-.3-.1-.4-.2s-.1-.1-.2-.1l-.1-.1c-.1-.1-.2-.1-.3-.2H37c-.1-.1-.2-.1-.3-.2a.1.1,0,0,1-.1-.1c-.1,0-.1-.1-.2-.1s-.3-.2-.5-.3l-.1-.1a10.4,10.4,0,0,1-3.5-5,7.92,7.92,0,0,1,.6-6.2"/><path d="M37.6,17a4.84,4.84,0,0,0-.4,4.8,6.6,6.6,0,0,0,3.9,3.6c.1,0,.1,0,.2.1h.1c.1,0,.2.1.3.1,4.7.9,6-2.4,6.4-2.9-1.1,1.6-3,2-5.3,1.4a1.42,1.42,0,0,1-.6-.2,4.88,4.88,0,0,0-.7-.3,7.46,7.46,0,0,1-1.2-.7c-2.1-1.6-3.4-4.6-2-7"/><path d="M26.9,47.4h0l-.3,1.1Zm1.5,2.4h0Zm-.1,1.6Zm.5-1.6h0Zm-.3,1.4.3-1.3-.3,1.3Zm7.4-6.1-.6,3.1Zm-1.7,0-.5,2.3.5-2.3Z"/><path d="M35.8,45H34.4a.35.35,0,0,0-.2.1l-.5,2.3-.5,2.3c0,.1-.1.1-.2.1H32c-1,0-.9-.7-.7-1.6h0v-.1h0v-.5a.37.37,0,0,1,.1-.3l.2-1.1.2-1.1c0-.1,0-.1-.1-.1H30.3a.35.35,0,0,0-.2.1L30,46.6,29.7,48h0v.1c-.4,1.6-.3,3.1,1.7,3.2h3.1a.35.35,0,0,0,.2-.1l.6-3.1.6-3.1Zm5.5,4.8a.1.1,0,0,1,.1.1l-.1.7m-.1.7.1-.7-.1.7Zm-.2.1ZM37.6,49a.22.22,0,0,1,.2-.2h-.2C37.5,49.6,37.6,49,37.6,49Z"/><path d="M38.6,51.4Zm2.7-1.6a.1.1,0,0,1,.1.1l-.1.7v.1m-2.5.7Zm.4,0h0Zm2-.1.1-.6-.1.6ZM18.3,49l.2-1-.2,1.1-.2,1.1.2-1V49Zm2.6-4H19.4a.35.35,0,0,0-.2.1l-.1.6-.1.6c0,.1,0,.1.1.1h1.5a.35.35,0,0,0,.2-.1l.1-.6.1-.6h0c0-.1,0-.1-.1-.1Zm-.3,2.1h0l-.4,2.1.4-2.1ZM16.1,54h0Zm2.6-6.9-.2,1Z"/><path d="M20.5,47H19a.35.35,0,0,0-.2.1l-.2,1-.2,1a.37.37,0,0,1-.1.3l-.2,1-.2,1a.37.37,0,0,1-.1.3s-.3.9-.8.8h-.5a.35.35,0,0,0-.2.1l-.2.7-.1.5c0,.1,0,.1.1.1h1.3c1.2,0,1.8-.7,2.2-2.6l.5-2.2.4-2.1Zm21.8,4.4a.1.1,0,0,1-.1-.1l1.2-5.4m.5,5.3.5-2.3Z"/><path d="M42.2,51.3v-.2l.5-2.6-.5,2.8h0l.2.1-.2-.1Zm1.6,0h0a.1.1,0,0,0,.1-.1v-.1c0,.1,0,.2-.1.2Zm.3-1.2.2-1h0Zm4.6-3.9.1.3c0,.1,0,.1-.1.1m-4.8,4.5.2-1Zm4.7-5.2.1.3Zm-4.3,3.2a.37.37,0,0,1,.1-.3l.2-1L44.4,49l-.1.1Zm-.9-3.4v.2l-.5,2.6.5-2.8Z"/><path d="M48.8,46.4l-.1-.3-.1-.3v-.1c-.1-.5-.5-.8-1.3-.8H43.7a.35.35,0,0,0-.2.1h0l-.1.3-.1.3v.1l-.6,2.7L42.2,51v.2l.2.1h1.4l.1-.2.2-1,.2-1h0V49l.2-1.2.2-1c0-.1.1-.1.2-.1h3.6q.3-.15.3-.3Z"/><path d="M53.5,44.1H52a.35.35,0,0,0-.2.1L49.2,48c0,.1-.1.1-.1,0l-.2-.8c0-.1-.1-.1-.2-.1H47l.7,2.6V50l-.3,1.3c0,.1,0,.1.1.1h1.6a.35.35,0,0,0,.2-.1l.3-1.3a.35.35,0,0,1,.1-.2l4.2-5.6c0-.1,0-.1-.1-.1ZM40.3,47.3h0c0,.1-.1.1-.2.1H38c-.1,0-.1,0-.1-.1h0a1.37,1.37,0,0,1,1.4-.9c.9,0,1,.4,1,.9Zm-.6-2.4c-2.7,0-3.3,1.6-3.7,3.3s-.3,3.3,2.5,3.3H41a.35.35,0,0,0,.2-.1l.1-.6v-.1l.1-.7c0-.1,0-.1-.1-.1H38.8c-1,0-1.3-.3-1.2-1h4c.1,0,.1,0,.1-.1h0c.7-2.4.5-3.9-2-3.9ZM26.9,47.3v.1h0l-.3,1.1-.3,1.1c0,.1-.1.1-.2.1H24.5c-1.2,0-1.5-1-1.2-2.4s.9-2.3,2.1-2.4c1.6-.1,1.9,1.1,1.5,2.4ZM28,49.6a12.43,12.43,0,0,0,.9-2.9,3,3,0,0,0-3.2-3.5c-2.7,0-3.9,2-4.4,4.1s.1,4,2.9,4h4.1a.35.35,0,0,0,.2-.1l.3-1.3c0-.1,0-.1-.1-.1h-.6c-.1,0-.1-.1-.1-.2Z"/><path d="M41.5,48.4h0c-.1.1-.2.1-.2,0a.14.14,0,0,1,.2,0Z"/><path d="M68,2V68H2V2H68m2-2H0V70H70V0Z"/></g></g></svg>