<svg xmlns="http://www.w3.org/2000/svg" viewBox="0 0 70 70"><title>Asset 2</title><g id="Layer_2" data-name="Layer 2"><g id="레이어_1" data-name="레이어 1"><path d="M16.1,54V16.1H54V54ZM47.2,37.9c.9-.6,1.8-1.2,2.8-1.8a5.46,5.46,0,0,0-3.3-2.7,6.89,6.89,0,0,0-3.2-.1,4.47,4.47,0,0,0-3.8,4.1,4.77,4.77,0,0,0,2.1,4.7,15.1,15.1,0,0,0,3.1,1.6,17.38,17.38,0,0,1,1.9,1,1.56,1.56,0,0,1,.6.8,1.54,1.54,0,0,1-1.2,2,3.66,3.66,0,0,1-4-1.2c-.2-.3-.4-.5-.6-.8-.9.5-1.8,1.1-2.8,1.6-.2.1-.1.2,0,.3a6.62,6.62,0,0,0,2.3,2.4,8.35,8.35,0,0,0,6,.8,4.87,4.87,0,0,0,2.7-1.5A4.47,4.47,0,0,0,51,46a5.49,5.49,0,0,0-.9-3.3,5.78,5.78,0,0,0-2.3-1.8c-1-.5-1.9-.9-2.9-1.3a5,5,0,0,1-1.2-.8,1.5,1.5,0,0,1,.6-2.5,2.22,2.22,0,0,1,2.3.5A3,3,0,0,0,47.2,37.9Zm-18.3,8c-.9.6-1.8,1.1-2.8,1.7-.2.1-.1.2,0,.3A5.12,5.12,0,0,0,29,50.6a6.61,6.61,0,0,0,3.4.3,4.59,4.59,0,0,0,2.5-1A4.89,4.89,0,0,0,36.6,46V33.4H33.4c-.4,0-.4,0-.4.4V46.2a1.51,1.51,0,0,1-1.3,1.5,2.15,2.15,0,0,1-2.3-.9A4.05,4.05,0,0,0,28.9,45.9Z"/><path d="M68,2V68H2V2H68m2-2H0V70H70V0Z"/></g></g></svg>