<svg xmlns="http://www.w3.org/2000/svg" viewBox="0 0 70 70"><title>Asset 3</title><g id="Layer_2" data-name="Layer 2"><g id="레이어_1" data-name="레이어 1"><path d="M26.5,15.9H24.8V14H22.9v5.6h1.9V17.7h1.7v1.9h1.9V14H26.5Zm13.3-1.8h-.2L38.4,16l-1.2-1.9H35.3v5.6h1.8V16.9l1.3,2h0l1.3-2.1v2.9h1.8V14.1H39.8ZM29.2,16h1.7v3.7h1.9V16h1.7V14.1H29.3V16Zm15.3,1.8V14.1H42.6v5.6H47V17.8Z"/><polygon points="44.4 28.4 25.6 28.4 26.7 39.8 26.7 39.7 39.5 39.7 39.1 44.5 35 45.7 30.9 44.5 30.6 41.6 26.9 41.6 27.4 47.4 35 49.5 42.6 47.4 43.7 36 30.1 36 29.7 32.2 44 32.2 44.4 28.4"/><path d="M68,2V68H2V2H68m2-2H0V70H70V0Z"/><path d="M35,56.9,22,53.2,19.1,21.3H50.9L48,53.3ZM23.8,51.8,35,54.9l11.2-3.2,2.6-28.6H21.2Z"/></g></g></svg>