<svg xmlns="http://www.w3.org/2000/svg" viewBox="0 0 70 70"><title>Asset 10</title><g id="Layer_2" data-name="Layer 2"><g id="레이어_1" data-name="레이어 1"><path d="M68,2V68H2V2H68m2-2H0V70H70V0Z"/><path d="M34.75,48.45a.88.88,0,0,1-.42-.11L33,47.56c-.2-.11-.1-.15,0-.17a2.24,2.24,0,0,0,.59-.28.17.17,0,0,1,.1,0l1,.6a.15.15,0,0,0,.13,0l4-2.29a.12.12,0,0,0,.07-.11V40.74a.12.12,0,0,0-.07-.11l-4-2.28a.15.15,0,0,0-.13,0l-4,2.28a.13.13,0,0,0-.06.11v4.58a.11.11,0,0,0,.06.1l1.08.63c.59.29,1-.06,1-.4V41.13a.11.11,0,0,1,.11-.12h.5a.12.12,0,0,1,.12.12v4.52a1.1,1.1,0,0,1-1.17,1.24,1.7,1.7,0,0,1-.92-.25l-1-.6a.85.85,0,0,1-.42-.72V40.74a.84.84,0,0,1,.42-.72l4-2.29a.87.87,0,0,1,.83,0l4,2.29a.84.84,0,0,1,.42.72v4.58a.8.8,0,0,1-.42.72l-4,2.29a.73.73,0,0,1-.41.12ZM38,43.94c0-.86-.58-1.09-1.8-1.25s-1.36-.25-1.36-.54.11-.55,1-.55,1.12.17,1.24.72a.11.11,0,0,0,.11.09h.52a.11.11,0,0,0,.08,0,.16.16,0,0,0,0-.09c-.09-.95-.71-1.39-2-1.39S34,41.38,34,42.18s.68,1.1,1.76,1.21c1.3.13,1.4.32,1.4.57,0,.45-.35.63-1.19.63-1,0-1.29-.26-1.36-.78a.12.12,0,0,0-.12-.09H34a.11.11,0,0,0-.12.11c0,.67.36,1.46,2.1,1.46,1.27,0,2-.49,2-1.35Zm3.74-3.44a.76.76,0,1,1-.76-.76A.75.75,0,0,1,41.69,40.5Zm-.12,0a.65.65,0,1,0-.65.64A.64.64,0,0,0,41.57,40.5Zm-.31.42h-.18s0-.26,0-.27,0-.07-.09-.07h-.15v.34h-.17v-.86h.3c.1,0,.3,0,.3.23a.19.19,0,0,1-.17.21c.12,0,.13.09.15.2a1.24,1.24,0,0,0,0,.22Zm-.19-.6c0-.12-.09-.12-.13-.12h-.13v.24h.13C41.05,40.44,41.07,40.37,41.07,40.32ZM22.46,30.54a.51.51,0,0,0-.25-.44L18,27.68a.48.48,0,0,0-.23-.07h0a.51.51,0,0,0-.24.07l-4.2,2.42a.5.5,0,0,0-.25.44v6.52a.26.26,0,0,0,.13.22.23.23,0,0,0,.25,0l2.5-1.44a.5.5,0,0,0,.25-.44v-3a.51.51,0,0,1,.26-.44l1.06-.61a.48.48,0,0,1,.26-.07.47.47,0,0,1,.25.07l1.06.61a.51.51,0,0,1,.26.44v3a.5.5,0,0,0,.25.44l2.5,1.44a.23.23,0,0,0,.25,0,.25.25,0,0,0,.13-.22V30.54Zm23-7.12V35.53a.51.51,0,0,1-.26.44L41,38.4a.52.52,0,0,1-.51,0L36.29,36a.5.5,0,0,1-.25-.44V30.67a.5.5,0,0,1,.25-.44L40.5,27.8a.52.52,0,0,1,.51,0l1.05.6a.17.17,0,0,0,.26-.15V21.8a.26.26,0,0,1,.38-.22L45.21,23a.52.52,0,0,1,.26.44Zm-3.16,8.85a.14.14,0,0,0-.06-.11l-1.44-.84a.15.15,0,0,0-.13,0l-1.45.84a.11.11,0,0,0-.06.11v1.67a.17.17,0,0,0,.06.11l1.45.83a.13.13,0,0,0,.12,0l1.44-.83a.14.14,0,0,0,.06-.11V32.27Zm14.4-.05a.5.5,0,0,0,.25-.44V30.61a.5.5,0,0,0-.25-.44l-4.18-2.43a.52.52,0,0,0-.51,0l-4.21,2.43a.52.52,0,0,0-.25.44v4.86a.52.52,0,0,0,.25.44L52,38.29a.5.5,0,0,0,.5,0L55,36.88a.25.25,0,0,0,0-.44L50.79,34a.24.24,0,0,1-.13-.22V32.27a.24.24,0,0,1,.13-.22l1.31-.76a.24.24,0,0,1,.26,0l1.32.76a.29.29,0,0,1,.13.22v1.19a.25.25,0,0,0,.38.22l2.52-1.46Zm-5.31.24a.12.12,0,0,0,0,.08v.94a.12.12,0,0,0,0,.08l.81.46a.07.07,0,0,0,.1,0l.81-.46a.1.1,0,0,0,.05-.08v-.94a.09.09,0,0,0-.05-.08L52.31,32a.09.09,0,0,0-.1,0ZM34,35.45V30.61a.53.53,0,0,0-.27-.44L29.5,27.76a.52.52,0,0,0-.51,0l-4.2,2.41a.53.53,0,0,0-.26.44v4.84a.52.52,0,0,0,.27.43L29,38.3a.49.49,0,0,0,.51,0l4.19-2.42a.47.47,0,0,0,.24-.32.36.36,0,0,0,0-.11Zm-5.1-8.58-.06,0h.08Zm5.23,8.94,0-.05v.06Z"/></g></g></svg>