<svg xmlns="http://www.w3.org/2000/svg" viewBox="0 0 70 70"><title>Asset 12</title><g id="Layer_2" data-name="Layer 2"><g id="레이어_1" data-name="레이어 1"><path d="M68,2V68H2V2H68m2-2H0V70H70V0Z"/><path d="M35,24.92c11.41,0,20.18,4.8,20.18,10.08S46.4,45.08,35,45.08,14.82,40.28,14.82,35,23.6,24.92,35,24.92m0-1.12c-11.76,0-21.3,5-21.3,11.2S23.24,46.2,35,46.2s21.3-5,21.3-11.2S46.76,23.8,35,23.8ZM28.23,34.1c-.53,2.7-2.39,2.42-4.67,2.42l.91-4.7c2.53,0,4.25-.27,3.76,2.28Zm-8,7.18h2.44l.58-3c2.73,0,4.43.2,6-1.27,1.74-1.59,2.19-4.44.95-5.86a3.86,3.86,0,0,0-3.09-1.11H22.36ZM32.54,27.06H35l-.58,3c2.1,0,4-.15,5,.71s.51,2.07-.55,7.53H36.36c1-5.28,1.22-5.72.84-6.12s-1.18-.31-3.15-.31L32.8,38.28H30.37l2.17-11.22Zm14.77,7c-.53,2.74-2.44,2.42-4.66,2.42l.91-4.7c2.54,0,4.24-.27,3.75,2.28Zm-8,7.18h2.45l.58-3c2.88,0,4.47.17,6-1.27,1.74-1.59,2.19-4.44,1-5.86a3.86,3.86,0,0,0-3.09-1.11h-4.7Z"/></g></g></svg>